# xmcd CD database file
#
# Track frame offsets:
#	150
#	17389
#	32683
#	54497
#	74282
#	90628
#	110060
#	125311
#	146038
#	179501
#
# Disc length: 2615 seconds
#
# Revision: 2
# Processed by: cddbd v1.5.1PL0 Copyright (c) Steve Scherf et al.
# Submitted via: CDex 1.51
#
DISCID=860a350a
DTITLE=Башаков - Сопротивление нелюбви
DYEAR=2004
DGENRE=Rock
TTITLE0=Звуки песни о тебе
TTITLE1=Поп музыка
TTITLE2=Не парься
TTITLE3=Цирк маленький
TTITLE4=Светлый день
TTITLE5=Утро
TTITLE6=Быть знаменитым
TTITLE7=Богиня
TTITLE8=Альбатрос
TTITLE9=Сопротивление нелюбви
EXTD=YEAR: 2004
EXTT0=
EXTT1=
EXTT2=
EXTT3=
EXTT4=
EXTT5=
EXTT6=
EXTT7=
EXTT8=
EXTT9=
PLAYORDER=
